<svg xmlns="http://www.w3.org/2000/svg" viewBox="0 0 96 96" width="96" height="96"><defs><linearGradient id="c" x1="0" y1="0" x2="1" y2="0"><stop offset="0" stop-color="#e57b4a"/><stop offset="1" stop-color="#c85b2c"/></linearGradient></defs><ellipse cx="48" cy="86" rx="28" ry="4.5" fill="#0f1b33" opacity=".13"/>
<path d="M32 58h32l-4 24c-.5 3-2.5 4.5-5.5 4.5h-13c-3 0-5-1.5-5.5-4.5z" fill="url(#c)"/>
<rect x="29" y="54" width="38" height="8" rx="3" fill="#d4693b"/>
<path d="M48 54c0-18-4-30-14-38 0 14 4 28 14 38z" fill="#2f9e5a"/>
<path d="M48 54c0-22 4-34 14-42 1 16-3 30-14 42z" fill="#3cb96b"/>
<path d="M48 54c-6-10-18-14-30-12 6 10 18 14 30 12z" fill="#278a4e"/>
<path d="M48 54c6-10 18-14 30-12-6 10-18 14-30 12z" fill="#35ad62"/>
<path d="M48 54V30" stroke="#1f7340" stroke-width="1.6" stroke-linecap="round" opacity=".5"/>
</svg>
