<svg xmlns="http://www.w3.org/2000/svg" viewBox="0 0 96 96" width="96" height="96"><defs><linearGradient id="c" x1="0" y1="0" x2="1" y2="1"><stop offset="0" stop-color="#c3ccdf"/><stop offset="1" stop-color="#7c89a6"/></linearGradient></defs><ellipse cx="48" cy="86" rx="28" ry="4.5" fill="#0f1b33" opacity=".13"/>
<path d="M36 6h24l3 20H33z" fill="#2b3550"/><path d="M33 70h30l-3 20H36z" fill="#2b3550"/>
<path d="M36 6h24l1 7H35z" fill="#fff" opacity=".1"/>
<circle cx="48" cy="48" r="26" fill="url(#c)"/>
<circle cx="48" cy="48" r="22" fill="#0b1226"/>
<circle cx="48" cy="48" r="22" fill="none" stroke="#3b4a72" stroke-width="1.2"/>
<g stroke="#8fa3d6" stroke-width="2" stroke-linecap="round"><path d="M48 29v4"/><path d="M48 63v4"/><path d="M29 48h4"/><path d="M63 48h4"/></g>
<path d="M48 48V36" stroke="#fff" stroke-width="3" stroke-linecap="round"/><path d="M48 48l9 5" stroke="#f2a900" stroke-width="3" stroke-linecap="round"/><circle cx="48" cy="48" r="2.6" fill="#e21f2b"/>
<rect x="73" y="43" width="5" height="10" rx="2" fill="#6b7893"/>
</svg>
